<?xml version="1.0" standalone="no"?>
<!DOCTYPE svg PUBLIC "-//W3C//DTD SVG 20010904//EN"
 "http://www.w3.org/TR/2001/REC-SVG-20010904/DTD/svg10.dtd">
<svg version="1.0" xmlns="http://www.w3.org/2000/svg"
 width="626.000000pt" height="417.000000pt" viewBox="0 0 626.000000 417.000000"
 preserveAspectRatio="xMidYMid meet">
<metadata>
Created by potrace 1.16, written by Peter Selinger 2001-2019
</metadata>
<g transform="translate(0.000000,417.000000) scale(0.100000,-0.100000)"
fill="#000000" stroke="none">
<path d="M4294 3799 c-151 -25 -288 -90 -384 -183 -52 -50 -57 -53 -87 -44
-18 5 -40 19 -49 33 l-16 24 -30 -35 c-39 -44 -77 -65 -148 -80 -54 -11 -55
-12 -27 -23 16 -6 60 -11 98 -11 56 0 73 -4 89 -20 23 -23 27 -60 6 -60 -8 0
-18 -9 -21 -20 -4 -13 -15 -20 -31 -20 -38 0 -86 -24 -119 -60 -23 -26 -26
-31 -10 -25 43 16 57 17 65 5 13 -21 0 -39 -40 -60 -26 -13 -45 -33 -60 -64
-11 -25 -30 -56 -41 -70 l-21 -26 25 9 c13 5 46 23 73 39 60 36 106 47 134 32
18 -10 19 -14 8 -27 -12 -15 -10 -16 17 -9 50 12 89 40 110 79 11 20 26 37 33
37 6 0 12 7 12 15 0 21 33 19 53 -3 19 -20 21 -57 8 -113 -5 -20 -6 -53 -2
-74 l6 -38 23 56 c24 57 98 137 127 137 21 0 19 7 -10 42 -39 46 -33 69 30
112 104 72 192 189 245 327 16 43 30 83 30 88 0 12 -29 41 -38 40 -4 -1 -30
-5 -58 -10z m-49 -65 c10 -19 34 -49 53 -65 40 -36 39 -42 -30 -144 -76 -112
-184 -195 -312 -238 -66 -22 -75 -23 -89 -10 -14 14 -7 24 64 93 51 49 79 84
79 98 0 12 -5 22 -10 22 -21 0 -90 -41 -144 -85 -31 -25 -58 -45 -61 -45 -2 0
-9 9 -15 19 -8 16 -3 32 26 83 85 147 186 231 345 288 71 26 71 26 94 -16z"/>
<path d="M4049 3651 c-64 -64 -18 -181 71 -181 36 0 81 30 95 63 44 107 -85
199 -166 118z m119 -21 c35 -32 33 -74 -4 -107 -31 -28 -54 -29 -88 -2 -33 26
-35 73 -4 106 27 28 67 30 96 3z"/>
<path d="M3097 3403 c23 -4 311 -298 327 -333 5 -12 5 -27 0 -38 -5 -10 -79
-84 -164 -165 -178 -169 -184 -171 -246 -104 -21 23 -90 95 -151 159 -80 84
-113 125 -113 142 0 18 41 63 163 182 89 86 155 153 146 148 -9 -5 -85 -75
-168 -155 l-151 -147 0 -87 0 -87 116 -121 c174 -182 201 -207 224 -207 21 0
333 287 345 318 4 9 9 49 12 88 l6 72 -49 53 c-132 147 -280 289 -299 288 -18
-2 -17 -2 2 -6z m-36 -694 c29 -15 49 0 216 159 l153 144 -6 -48 c-5 -48 -10
-53 -161 -201 -121 -119 -162 -153 -182 -153 -27 0 -75 45 -264 247 -64 67
-67 74 -67 119 l0 48 146 -152 c80 -84 155 -157 165 -163z"/>
<path d="M3755 3081 c-16 -10 -42 -31 -57 -47 -31 -34 -78 -120 -77 -143 0 -9
8 3 17 26 51 126 169 215 203 152 39 -74 -92 -279 -179 -279 -24 0 -32 11 -43
54 l-7 31 -1 -28 c-1 -33 38 -77 69 -77 79 0 192 144 194 247 1 36 -4 48 -24
63 -32 25 -57 25 -95 1z"/>
<path d="M2589 2751 c-50 -50 -30 -128 58 -222 95 -101 197 -136 248 -84 44
43 28 113 -47 207 -35 45 -142 118 -172 118 -14 -1 -8 -6 18 -15 129 -46 263
-243 201 -295 -56 -47 -221 55 -280 173 -31 63 -32 100 -3 127 12 11 18 20 14
20 -4 0 -21 -13 -37 -29z"/>
<path d="M4670 2432 c0 -122 -1 -128 -22 -137 -24 -10 -42 -54 -52 -121 -3
-22 2 -10 13 27 10 36 21 71 25 78 11 18 45 14 226 -29 94 -22 172 -40 175
-40 2 0 9 -9 15 -19 8 -15 0 -63 -31 -198 -23 -98 -45 -186 -51 -195 -13 -25
-36 -23 -228 22 -94 22 -172 40 -175 40 -2 0 -11 12 -19 28 -8 15 -15 22 -16
16 0 -6 18 -38 39 -71 27 -41 49 -64 70 -71 31 -11 31 -11 31 -86 0 -74 -7
-89 -28 -63 -6 7 -38 26 -72 42 l-60 29 0 107 0 108 -227 3 c-126 2 -238 1
-250 -1 -23 -3 -23 -4 -23 -191 l0 -187 -27 -36 c-31 -40 -47 -43 -150 -31
l-53 7 0 79 0 79 73 -40 72 -40 38 69 38 69 -49 28 c-27 15 -183 102 -345 193
-163 91 -297 168 -297 172 0 14 132 173 145 173 7 0 111 -78 229 -172 119 -95
220 -173 225 -173 5 0 44 43 86 97 43 53 73 93 67 89 -6 -3 -41 -45 -78 -91
-37 -47 -71 -85 -75 -85 -4 0 -97 71 -206 158 -244 194 -350 275 -300 229 l38
-35 -66 -86 c-36 -47 -70 -88 -75 -91 -10 -6 -280 141 -280 152 0 5 38 53 148
191 19 23 32 42 29 42 -3 0 -47 -52 -97 -115 -51 -63 -95 -115 -99 -115 -3 0
-19 9 -36 20 -16 11 -39 20 -50 20 -11 0 -87 -38 -170 -84 -82 -46 -152 -79
-154 -74 -2 6 -12 -15 -23 -47 -37 -111 -104 -189 -203 -236 -56 -27 -68 -29
-175 -28 -69 1 -132 7 -159 15 -24 8 -46 12 -49 10 -2 -3 7 -8 22 -12 14 -3
23 -10 20 -15 -3 -5 74 -9 180 -9 101 0 186 4 188 9 2 5 119 74 261 153 l258
145 112 -62 c62 -34 255 -142 430 -240 l317 -178 0 -88 0 -89 -607 0 -608 0 0
-63 c0 -60 1 -63 23 -59 27 5 32 -24 5 -30 -10 -3 5 -4 32 -5 28 0 38 2 23 4
-37 6 -36 26 2 40 17 6 30 18 30 27 0 14 27 16 235 16 208 0 235 -2 235 -16 0
-9 14 -21 30 -27 l30 -11 0 -103 0 -103 -35 0 -35 0 0 -79 0 -79 43 -3 42 -4
-3 187 -3 188 57 -1 c51 -2 60 1 79 25 27 34 98 38 115 6 6 -11 22 -23 35 -26
25 -6 25 -8 25 -110 l0 -104 -40 0 -40 0 0 -185 0 -185 40 0 40 0 0 -55 c0
-50 -3 -56 -24 -65 -14 -5 -30 -18 -36 -30 -17 -32 -88 -28 -116 7 -19 25 -27
27 -78 25 l-56 -2 0 80 c0 70 2 80 18 80 31 0 42 22 42 81 0 63 -7 89 -22 89
-6 0 -6 -6 1 -14 7 -9 11 -40 9 -78 l-3 -63 -803 0 c-441 0 -802 -3 -802 -7 0
-7 212 -11 438 -8 65 1 92 -2 92 -11 0 -9 3 -9 14 0 10 8 142 11 475 11 450
-1 461 -2 461 -21 0 -15 7 -19 35 -19 l35 0 0 -60 c0 -55 -2 -60 -22 -62 -13
0 0 -4 27 -7 l50 -6 0 -75 0 -75 -445 0 -445 0 -6 70 -5 70 -2 -72 -2 -72
-534 -1 c-358 0 -536 3 -539 10 -3 6 -4 5 -3 -2 2 -11 381 -13 1949 -16 l1947
-2 0 1055 0 1055 -250 0 -250 0 0 -128z m483 -425 c2 -508 1 -537 -16 -537
-26 0 -42 42 -27 70 6 12 10 24 7 26 -2 2 -40 -16 -85 -41 -55 -32 -82 -53
-86 -69 -4 -16 -22 -31 -52 -45 -25 -12 -47 -21 -48 -19 -44 67 -104 145 -132
170 -35 33 -35 34 -32 109 l3 76 140 -33 c157 -37 174 -39 198 -21 17 12 97
331 97 385 0 13 -16 50 -35 82 l-35 58 -108 26 c-59 13 -142 33 -184 42 l-78
18 0 123 0 123 235 -2 236 -3 2 -538z m-2207 246 c11 -10 26 -19 34 -21 7 -2
25 -9 39 -16 l25 -14 -32 -16 c-34 -17 -44 -30 -15 -19 12 5 14 3 8 -7 -5 -9
-4 -11 4 -6 6 4 9 11 6 16 -11 18 47 21 74 3 14 -10 28 -18 31 -18 3 0 41 -21
85 -47 60 -34 81 -51 81 -67 0 -16 -5 -19 -22 -15 -13 3 -32 3 -45 -1 -20 -7
-19 -9 17 -26 22 -11 30 -17 19 -13 -34 10 -48 10 -52 -3 -3 -7 0 -13 7 -13 6
0 8 5 5 10 -3 6 -1 10 5 10 7 0 14 -9 17 -19 3 -13 11 -18 21 -14 13 4 14 3 3
-5 -10 -7 -6 -9 14 -9 23 0 25 1 11 9 -11 6 -15 16 -11 29 4 13 2 19 -9 19 -8
0 -18 5 -21 10 -4 7 9 9 37 5 37 -4 41 -3 26 9 -22 16 -23 26 -3 26 8 0 15 -5
15 -11 0 -5 4 -8 8 -5 5 3 28 -8 53 -25 24 -16 49 -29 56 -29 6 0 13 -3 15 -7
2 -5 20 -16 41 -26 24 -10 35 -22 31 -29 -4 -6 -3 -8 4 -4 15 9 94 -33 85 -47
-4 -6 0 -8 10 -4 15 5 137 -57 137 -70 0 -2 -9 1 -19 7 -15 7 -22 7 -27 -2 -4
-7 -4 -10 1 -6 4 4 14 3 21 -3 8 -6 21 -8 30 -5 15 6 15 4 3 -10 -13 -16 -12
-16 6 -7 16 9 32 5 80 -22 33 -19 59 -37 58 -42 -1 -4 3 -14 9 -20 6 -7 7 -13
3 -13 -4 0 -2 -7 5 -15 9 -11 9 -15 1 -15 -7 0 -9 -5 -6 -10 7 -11 -5 -17 -49
-24 -30 -5 -126 37 -126 56 0 4 -7 8 -16 8 -8 0 -12 5 -9 11 4 6 1 9 -7 7 -7
-2 -33 6 -56 16 -34 16 -40 22 -30 33 9 12 7 13 -13 8 -17 -4 -35 1 -59 17
-19 13 -50 30 -67 37 -18 7 -31 17 -28 21 7 11 94 10 101 -1 3 -5 13 -9 22 -9
15 0 15 2 1 15 -18 18 -107 26 -126 12 -16 -12 -65 7 -89 34 -9 10 -21 16 -27
12 -6 -4 -7 -1 -3 6 5 8 3 12 -5 10 -26 -3 -40 1 -35 10 3 5 -1 12 -10 15 -8
3 -12 2 -9 -4 3 -5 -19 5 -49 23 -30 17 -52 36 -48 41 3 5 -2 7 -11 3 -17 -6
-19 -4 -21 36 0 12 -5 22 -11 22 -18 0 -35 16 -29 27 4 6 -1 6 -14 -1 -31 -16
-36 -31 -12 -31 14 0 19 4 14 13 -4 7 -3 9 2 4 5 -5 10 -13 10 -18 1 -5 2 -12
3 -15 0 -4 8 0 18 7 15 13 15 12 3 -10 -12 -24 -13 -24 -26 -6 -8 10 -14 15
-14 11 0 -4 -18 3 -40 15 -21 12 -37 26 -34 31 3 5 0 9 -7 7 -37 -5 -74 23
-65 48 4 8 1 11 -5 8 -6 -4 -8 -14 -4 -24 5 -13 4 -14 -6 -3 -7 6 -19 12 -26
12 -7 0 -71 -34 -143 -75 -72 -41 -133 -75 -135 -75 -3 0 -22 -10 -43 -23 -60
-38 -158 -91 -147 -80 6 5 23 19 38 31 15 11 28 24 28 29 -1 4 10 8 23 7 17
-1 23 3 19 13 -5 12 -7 12 -14 1 -7 -10 -9 -10 -9 0 0 21 30 73 39 67 5 -2 9
1 8 8 -2 58 3 68 46 88 23 11 53 27 67 35 l25 16 -24 -21 c-13 -11 -19 -21
-13 -21 6 0 19 11 30 25 11 13 32 30 48 37 16 7 35 19 43 26 7 7 20 11 28 8 8
-3 23 -1 33 4 11 6 30 11 43 12 13 1 24 8 24 15 0 17 -6 17 -51 -8 -21 -11
-40 -18 -43 -15 -5 5 66 45 83 46 5 0 19 -8 30 -17z m2123 -350 c-28 -121 -47
-183 -60 -194 -17 -15 -31 -14 -191 23 -170 38 -207 53 -235 95 -13 20 -8 19
129 -13 79 -19 168 -37 199 -41 50 -5 58 -3 67 14 6 11 27 91 47 179 46 204
43 197 66 152 l19 -37 -41 -178z m-577 -112 l-3 -99 -42 10 c-75 17 -173 3
-254 -37 -40 -20 -73 -41 -73 -47 0 -5 -7 -8 -15 -4 -8 3 -14 2 -12 -2 1 -5
-15 -23 -35 -41 l-38 -33 0 176 0 176 238 0 237 0 -3 -99z m-22 -112 c82 -19
172 -71 241 -140 65 -65 127 -154 115 -166 -7 -7 -4 -11 -45 55 -90 142 -263
242 -420 242 -85 0 -149 -19 -218 -65 -31 -20 -52 -32 -49 -27 13 21 114 81
161 95 59 18 152 21 215 6z m62 -122 c32 -14 81 -47 109 -74 52 -49 109 -123
109 -142 0 -6 -14 -18 -31 -26 -29 -15 -32 -15 -45 2 -7 10 -14 14 -14 9 0 -5
-23 12 -50 38 -70 65 -129 91 -210 90 -61 0 -104 -14 -151 -48 -8 -6 -3 1 13
16 83 82 271 53 364 -56 19 -22 34 -35 34 -29 0 6 -19 30 -42 53 -117 117
-281 128 -382 26 -111 -110 -100 -325 23 -458 193 -210 490 -91 468 186 -4 39
-9 83 -13 98 -5 22 -1 29 25 43 31 15 31 15 41 -11 19 -49 29 -154 20 -210
-20 -121 -79 -208 -176 -255 -334 -165 -706 326 -491 648 33 50 107 106 161
123 57 17 176 6 238 -23z m-730 -134 c18 -16 18 -16 12 0 -5 15 2 17 60 17 64
0 66 -1 54 -20 -17 -27 -112 -29 -141 -2 -19 16 -20 16 -14 0 6 -17 -27 -18
-552 -18 -498 0 -559 2 -565 16 -3 8 -11 12 -17 8 -8 -4 -7 -9 2 -15 9 -6 -2
-8 -31 -7 -29 1 -35 2 -17 5 15 2 27 8 27 12 0 5 -11 6 -25 3 -14 -2 -25 0
-25 7 0 7 176 10 607 11 554 0 608 -2 625 -17z m1351 -470 l-2 -488 -208 -2
-208 -3 -27 38 c-22 32 -27 50 -29 115 l-2 77 39 26 c21 14 52 38 67 53 38 35
96 139 113 204 18 70 18 209 -2 277 -29 100 -30 93 20 117 29 15 56 21 73 17
19 -4 49 4 93 25 36 17 67 31 70 31 3 0 4 -219 3 -487z m-692 427 c24 0 101
-55 127 -89 l22 -30 -27 -14 c-25 -14 -28 -13 -46 9 -42 53 -123 72 -173 39
-82 -54 -59 -205 39 -257 42 -23 75 -22 114 2 41 25 55 52 56 111 1 40 4 49
25 59 14 6 26 9 28 7 2 -2 7 -24 10 -48 17 -125 -77 -234 -184 -214 -116 22
-202 129 -202 249 0 47 28 113 58 139 27 25 92 48 117 42 11 -3 27 -5 36 -5z
m-687 -380 c-1 -350 -3 -382 -19 -400 -24 -27 -71 -26 -85 0 -6 12 -22 25 -36
30 -21 9 -24 15 -24 65 l0 55 43 1 c23 0 38 2 32 5 -10 4 -11 308 -1 346 3 13
-4 18 -33 20 l-36 3 -3 101 c-3 101 -3 102 22 108 14 3 30 15 36 26 8 16 21
20 58 20 l47 0 -1 -380z m66 31 l-1 -348 -24 -23 -25 -23 0 371 0 372 25 0 25
0 0 -349z m64 307 c-9 -24 -18 -83 -21 -133 -7 -111 11 -188 67 -300 l40 -79
-62 -63 c-34 -35 -66 -63 -70 -63 -4 0 -8 153 -8 340 l0 340 35 0 34 0 -15
-42z m-304 -163 c0 -85 4 -155 9 -155 4 0 8 17 8 38 -1 33 2 37 26 40 26 3 27
1 27 -42 0 -47 -7 -53 -57 -47 -9 1 -12 -26 -11 -96 0 -54 0 -140 -1 -190 l-1
-93 -35 0 -35 0 0 350 0 350 35 0 35 0 0 -155z m741 -584 c51 -11 58 -15 92
-66 20 -31 37 -58 37 -60 0 -3 -65 -5 -145 -4 -80 0 -145 4 -145 7 0 12 93
141 99 138 3 -2 31 -9 62 -15z"/>
<path d="M2890 1875 c0 -8 -5 -15 -10 -15 -24 0 -60 -50 -60 -83 0 -48 19 -67
81 -81 34 -8 54 -18 54 -27 0 -20 -54 -25 -61 -5 -8 21 -84 23 -84 2 0 -20 37
-64 60 -71 11 -4 20 -13 20 -21 0 -9 11 -14 35 -14 24 0 35 5 35 15 0 8 13 21
29 29 33 17 41 34 41 80 0 41 -22 62 -79 75 -24 5 -48 14 -54 20 -16 16 22 27
44 13 10 -7 34 -12 53 -12 34 0 35 1 25 29 -5 15 -21 34 -34 41 -14 7 -25 19
-25 27 0 8 -13 13 -35 13 -24 0 -35 -5 -35 -15z m54 -12 c4 -9 1 -20 -5 -24
-8 -4 -4 -11 12 -20 21 -11 23 -11 11 3 -7 9 -9 19 -4 22 10 6 52 -30 52 -44
0 -14 -49 -8 -62 7 -14 17 -39 16 -63 -1 -18 -13 -18 -14 7 -39 18 -18 33 -24
49 -20 20 4 21 3 9 -7 -12 -9 -10 -11 12 -6 53 12 79 -58 38 -105 -18 -21 -19
-22 -14 -4 5 17 3 16 -16 -5 -15 -17 -20 -19 -16 -7 3 9 1 17 -4 17 -6 0 -10
-13 -10 -30 0 -35 -19 -40 -38 -10 -7 11 -19 20 -27 20 -15 0 -19 12 -15 39 1
12 -1 12 -12 3 -12 -9 -15 -8 -15 4 0 19 36 15 59 -8 20 -20 24 -33 7 -22 -7
4 -10 2 -8 -5 3 -7 8 -12 13 -11 5 1 13 -4 17 -12 6 -9 9 -7 9 9 0 23 32 48
45 35 5 -4 5 1 2 10 -4 12 -2 15 8 11 8 -3 12 -10 8 -17 -3 -6 -3 -8 2 -4 12
12 17 70 5 63 -6 -4 -8 -11 -5 -16 9 -13 -9 -11 -41 6 -24 12 -26 15 -9 16 14
0 8 6 -20 19 -21 10 -43 16 -47 14 -4 -3 -8 0 -8 5 0 6 -4 11 -8 11 -5 0 -9
-7 -9 -16 0 -9 7 -14 17 -11 9 2 25 -2 36 -10 18 -13 16 -14 -14 -9 -33 4 -46
11 -48 24 0 4 -4 15 -9 26 -6 14 -2 23 16 37 13 10 29 19 35 19 6 0 19 9 28
19 17 18 17 20 -1 30 -17 10 -16 10 3 11 12 0 25 -8 28 -17z"/>
<path d="M1573 1299 c33 -25 35 -61 6 -124 -59 -125 -217 -233 -267 -183 -45
45 37 203 142 274 28 19 46 34 40 34 -6 0 -29 -13 -51 -29 -80 -58 -152 -170
-153 -238 0 -35 46 -83 81 -83 93 0 259 181 259 281 0 33 -32 75 -62 82 -21 5
-21 4 5 -14z"/>
<path d="M3290 935 l0 -190 45 3 c25 2 45 8 45 14 0 5 -5 6 -11 2 -8 -4 -8 -1
-2 12 5 11 11 37 12 59 3 35 1 38 -13 26 -9 -7 -16 -28 -16 -46 0 -27 -4 -34
-25 -37 -24 -5 -25 -3 -25 38 0 42 1 44 30 44 20 0 30 5 30 15 0 8 5 15 10 15
6 0 10 23 10 51 0 31 -4 48 -10 44 -5 -3 -10 -26 -10 -51 0 -43 -1 -44 -30
-42 -28 2 -30 5 -30 45 0 41 1 43 30 43 21 0 30 5 30 16 0 8 4 13 9 10 5 -3 8
21 8 53 l-1 59 -43 4 -43 3 0 -190z"/>
<path d="M2730 1014 c0 -23 5 -34 14 -34 8 0 17 -6 19 -12 4 -10 6 -10 6 0 1
8 22 12 70 12 46 0 71 -4 74 -12 4 -10 6 -10 6 0 1 8 21 12 65 12 42 0 66 -4
69 -12 4 -10 6 -10 6 0 1 6 10 12 22 12 17 0 20 5 17 33 l-3 32 -182 1 -183 1
0 -33z"/>
<path d="M2002 702 l-2 -72 -449 2 c-247 2 -447 0 -444 -4 2 -5 40 -8 83 -8
53 0 80 -4 83 -12 4 -10 6 -10 6 0 1 18 891 18 891 0 0 -10 2 -10 9 0 6 10 33
13 97 12 49 -1 252 -1 452 -1 338 1 362 2 361 19 0 10 -3 12 -6 5 -7 -19 -889
-19 -896 0 -4 10 -6 10 -6 0 -1 -9 -25 -13 -86 -13 l-84 0 -4 73 -3 72 -2 -73z"/>
</g>
</svg>
