<?xml version="1.0" standalone="no"?>
<!DOCTYPE svg PUBLIC "-//W3C//DTD SVG 20010904//EN"
 "http://www.w3.org/TR/2001/REC-SVG-20010904/DTD/svg10.dtd">
<svg version="1.0" xmlns="http://www.w3.org/2000/svg"
 width="800.000000pt" height="800.000000pt" viewBox="0 0 800.000000 800.000000"
 preserveAspectRatio="xMidYMid meet">
<metadata>
Created by potrace 1.16, written by Peter Selinger 2001-2019
</metadata>
<g transform="translate(0.000000,800.000000) scale(0.100000,-0.100000)"
fill="#000000" stroke="none">
<path d="M3790 7349 c-123 -8 -345 -36 -370 -46 -8 -3 -31 -7 -50 -8 -67 -5
-300 -66 -293 -77 3 -7 1 -8 -5 -4 -20 12 -276 -69 -267 -84 3 -4 -1 -8 -8 -7
-31 1 -48 -4 -43 -12 4 -5 -2 -7 -12 -4 -11 2 -26 -3 -36 -12 -9 -9 -16 -14
-16 -11 0 3 -30 -8 -67 -24 -38 -16 -67 -34 -65 -40 1 -6 -3 -8 -9 -5 -9 6
-54 -10 -69 -25 -3 -3 -18 -11 -35 -19 -16 -7 -39 -18 -50 -24 -80 -43 -111
-61 -120 -71 -6 -6 -31 -22 -57 -35 -26 -13 -45 -28 -41 -34 3 -5 2 -7 -4 -4
-12 8 -125 -67 -116 -77 5 -4 4 -6 -2 -4 -12 3 -85 -40 -85 -51 0 -4 5 -12 10
-17 7 -7 6 -11 -4 -11 -8 0 -13 4 -10 9 10 16 -12 8 -44 -15 -17 -13 -29 -27
-25 -30 3 -4 -1 -7 -10 -7 -8 0 -24 -11 -35 -25 -11 -14 -24 -25 -28 -25 -5
-1 -26 -16 -47 -34 -25 -23 -34 -36 -25 -39 8 -3 6 -6 -5 -6 -11 -1 -15 -6
-11 -13 5 -7 3 -8 -5 -3 -18 11 -141 -112 -133 -133 3 -9 1 -13 -5 -9 -12 8
-54 -25 -57 -45 -1 -7 -8 -22 -15 -33 -9 -15 -11 -16 -7 -2 3 9 2 17 -2 17
-10 0 -37 -42 -37 -60 0 -8 -8 -14 -18 -14 -9 1 -17 -2 -17 -6 0 -5 -12 -21
-27 -37 -49 -51 -64 -74 -57 -86 4 -7 4 -9 0 -5 -4 3 -22 -10 -40 -30 -55 -63
-169 -240 -161 -251 4 -7 1 -10 -7 -9 -7 2 -12 -3 -10 -9 1 -7 -2 -13 -7 -13
-15 0 -63 -89 -55 -102 4 -6 3 -8 -3 -5 -6 4 -38 -49 -76 -126 -75 -151 -99
-207 -89 -207 4 0 2 -4 -4 -8 -13 -8 -101 -249 -133 -363 -12 -42 -18 -85 -14
-94 4 -12 3 -16 -4 -12 -11 7 -57 -188 -48 -203 3 -5 1 -17 -4 -27 -25 -45
-68 -514 -58 -624 3 -30 7 -110 10 -179 4 -69 13 -172 22 -230 8 -58 18 -124
21 -147 4 -24 9 -43 13 -43 3 0 7 -19 8 -43 3 -68 99 -407 115 -407 5 0 7 -4
4 -9 -7 -11 16 -71 27 -71 4 0 5 5 1 12 -4 7 -3 8 5 4 8 -6 9 -12 2 -20 -11
-13 6 -76 21 -76 4 0 8 -8 8 -19 0 -26 41 -121 52 -121 5 0 7 -3 4 -8 -7 -12
29 -83 39 -75 4 5 5 3 1 -4 -7 -13 23 -83 36 -83 4 0 8 -6 8 -14 0 -18 80
-156 91 -156 5 0 8 -4 6 -9 -3 -13 114 -191 124 -186 4 3 11 0 15 -6 4 -8 3
-9 -4 -5 -20 12 -13 -12 7 -26 10 -7 19 -17 19 -21 0 -4 11 -21 24 -37 16 -21
25 -25 31 -17 6 8 7 5 3 -6 -6 -20 26 -71 38 -60 3 3 6 0 6 -9 0 -18 41 -58
61 -58 12 0 12 -2 -1 -10 -13 -9 -7 -14 12 -11 5 0 7 -2 6 -7 -5 -13 29 -53
43 -50 7 2 13 -4 14 -13 0 -19 200 -218 320 -320 54 -45 89 -68 97 -63 7 4 10
4 6 -1 -8 -9 32 -42 45 -37 5 1 6 -2 2 -8 -7 -12 55 -51 68 -43 6 3 7 2 4 -4
-7 -11 168 -130 184 -126 5 2 9 -1 9 -7 0 -13 101 -65 119 -61 7 1 10 -2 7 -8
-12 -19 447 -226 542 -245 9 -1 28 -8 42 -13 58 -24 179 -53 195 -46 12 4 16
3 12 -4 -7 -12 188 -57 204 -47 6 3 15 1 22 -4 17 -14 224 -40 417 -53 120 -7
208 -7 320 1 85 6 170 11 188 10 19 0 31 3 29 7 -3 4 18 8 46 8 70 0 227 26
227 37 0 5 5 6 10 3 6 -4 34 -1 63 5 97 22 322 83 327 89 3 3 14 8 25 9 11 2
22 8 23 13 2 5 8 7 13 4 5 -4 26 1 46 10 21 10 49 22 63 27 14 6 33 14 42 19
10 5 25 9 33 9 10 0 13 5 9 12 -4 6 -3 8 3 5 6 -4 37 5 69 19 137 61 183 84
189 94 3 5 14 10 24 10 10 0 35 16 55 35 38 35 53 44 40 24 -9 -14 12 -3 118
64 109 68 178 118 178 129 0 4 6 7 13 5 6 -1 11 4 10 10 -2 7 0 12 5 12 19 -3
32 3 66 33 21 18 57 49 81 68 27 21 42 41 39 50 -3 8 -2 11 2 8 14 -15 63 24
177 141 79 81 117 127 118 143 0 21 1 21 8 4 7 -19 8 -19 16 0 4 10 9 22 9 26
1 3 5 10 10 15 6 5 6 2 1 -7 -8 -13 -7 -13 8 -1 10 8 15 16 12 19 -3 3 4 11
15 19 11 8 17 20 14 31 -4 12 -3 14 3 4 7 -10 18 -2 45 30 39 49 63 89 60 101
-1 5 2 6 7 2 6 -3 33 29 60 72 28 43 56 84 61 91 6 7 8 17 5 22 -3 6 0 10 7
10 13 0 121 176 147 240 8 19 18 37 22 40 12 9 30 61 23 71 -3 5 2 9 10 9 14
0 21 18 17 43 0 4 3 7 7 7 8 0 48 89 54 120 2 8 6 17 9 20 11 10 38 88 32 94
-4 3 -2 6 4 6 10 0 36 75 33 94 -1 5 2 12 8 15 5 3 25 67 45 141 50 189 60
238 53 255 -3 8 -2 15 3 15 26 0 67 413 65 660 -1 151 -14 331 -23 326 -4 -3
-6 12 -4 32 3 40 -17 184 -43 302 -28 127 -81 328 -92 345 -4 6 -7 16 -8 24
-5 28 -77 216 -86 222 -5 3 -9 10 -8 15 2 19 -34 93 -43 87 -6 -3 -7 -1 -3 6
7 11 -37 120 -53 131 -4 3 -15 23 -23 45 -9 22 -22 39 -28 37 -6 -1 -10 3 -9
10 3 21 -12 48 -24 41 -6 -3 -7 -1 -3 5 8 13 -20 72 -34 72 -6 0 -9 3 -8 8 5
14 -45 91 -55 85 -6 -3 -7 -1 -4 4 4 6 -3 22 -16 35 -12 14 -23 30 -24 36 -5
23 -65 102 -74 96 -5 -3 -8 -2 -7 3 4 13 -28 54 -36 46 -4 -4 -5 -1 -2 7 7 19
-38 70 -61 70 -14 0 -15 2 -5 9 11 6 8 13 -12 28 -14 11 -23 23 -20 26 3 2 -6
14 -20 25 -15 11 -26 23 -26 26 0 11 -178 186 -189 186 -6 0 -11 7 -11 15 0 9
-7 18 -16 22 -9 3 -34 26 -56 49 -22 24 -44 42 -48 39 -4 -2 -17 9 -29 25 -12
17 -28 30 -37 30 -8 0 -13 4 -10 8 3 5 -7 15 -22 23 -14 8 -34 21 -43 29 -69
60 -100 80 -112 73 -6 -3 -7 -1 -4 4 9 14 -99 86 -115 77 -7 -4 -8 -3 -4 4 6
11 -50 48 -66 44 -5 -1 -8 2 -8 7 0 17 -316 185 -331 175 -5 -3 -9 -1 -9 4 0
6 -13 15 -30 21 -16 5 -30 8 -30 5 0 -3 -7 2 -16 11 -9 9 -23 14 -30 11 -8 -3
-14 -2 -14 3 0 14 -82 42 -94 31 -7 -5 -17 -5 -26 2 -12 8 -12 9 3 4 9 -3 17
-1 17 4 0 9 -22 14 -42 11 -5 0 -8 4 -8 10 0 6 -7 9 -15 5 -8 -3 -15 -2 -15 3
0 8 -109 46 -155 54 -11 2 -27 7 -35 10 -8 4 -26 9 -40 12 -14 2 -72 16 -129
30 -57 14 -112 23 -123 19 -11 -3 -23 -2 -27 4 -5 9 -201 41 -256 42 -11 0
-67 3 -125 7 -182 10 -291 11 -410 2z m565 -1148 c94 -16 122 -18 134 -8 12 9
13 9 7 -1 -8 -13 21 -28 70 -35 16 -2 36 -7 44 -10 8 -3 57 -20 109 -38 52
-17 123 -44 159 -60 35 -16 69 -26 75 -22 7 3 8 2 4 -2 -8 -10 123 -76 135
-69 3 2 10 -1 14 -7 4 -8 3 -9 -4 -5 -7 4 -12 5 -12 2 0 -10 84 -50 99 -47 7
1 10 -2 6 -8 -3 -6 -1 -11 5 -11 6 0 23 -11 38 -25 15 -14 33 -23 40 -20 7 3
10 0 7 -5 -4 -6 8 -18 26 -28 17 -9 41 -27 52 -39 11 -13 24 -23 29 -23 5 0
28 -18 51 -40 23 -22 47 -38 54 -36 7 3 15 0 19 -6 4 -7 3 -8 -4 -4 -17 10
-15 -5 4 -25 9 -10 23 -16 32 -13 10 2 1 -3 -18 -13 -19 -9 -38 -16 -43 -15
-4 1 -51 -4 -105 -12 -152 -23 -157 -23 -157 -6 -1 8 -6 14 -13 13 -7 -2 -12
2 -12 7 0 12 -208 150 -226 150 -7 0 -14 4 -16 8 -6 17 -220 113 -283 128 -5
2 -34 12 -62 23 -29 12 -53 18 -53 15 0 -4 -6 -2 -12 4 -23 18 -241 60 -378
72 -74 7 -175 10 -225 6 -49 -3 -111 -5 -137 -5 -27 0 -48 -5 -48 -10 0 -6 -6
-8 -14 -5 -14 5 -193 -23 -210 -34 -6 -3 -23 -7 -39 -9 -39 -4 -210 -64 -218
-75 -3 -6 -8 -9 -10 -8 -19 8 -215 -81 -231 -105 -4 -5 -11 -10 -16 -10 -17 0
-112 -56 -112 -66 0 -6 -5 -7 -10 -4 -6 3 -13 -1 -16 -9 -3 -9 -12 -16 -19
-16 -7 0 -27 -13 -44 -29 -16 -15 -32 -26 -35 -24 -2 2 -13 -8 -25 -23 -11
-15 -21 -23 -21 -18 0 5 -15 -7 -33 -26 -62 -65 -129 -119 -149 -120 -5 0 -8
5 -8 12 0 16 -69 78 -88 78 -13 0 -12 -3 3 -20 10 -11 24 -20 32 -20 8 0 12
-4 9 -9 -3 -5 1 -14 9 -21 8 -7 15 -9 15 -4 0 5 7 -2 16 -14 8 -12 22 -22 30
-22 9 0 12 -5 8 -11 -14 -23 25 7 98 76 41 39 92 83 112 98 20 16 34 32 31 38
-4 5 -1 9 5 9 6 0 8 5 4 12 -4 7 -3 8 5 4 6 -4 8 -13 4 -19 -4 -7 2 -5 13 3
35 27 43 38 36 45 -4 5 -1 5 5 1 16 -9 74 24 66 37 -3 6 -1 7 4 4 6 -4 27 4
47 18 20 14 44 25 52 25 8 0 17 6 20 13 3 8 10 14 17 14 7 0 46 16 87 35 41
19 85 38 98 42 12 4 22 12 22 18 0 5 7 8 15 4 8 -3 15 -1 15 5 0 6 4 8 9 5 5
-3 28 1 52 8 179 57 326 83 511 92 151 7 326 -6 474 -36 128 -26 186 -43 314
-93 58 -22 111 -40 118 -40 6 0 12 -4 12 -7 0 -4 35 -25 78 -46 42 -21 77 -36
77 -34 0 2 9 -4 20 -13 11 -9 22 -16 25 -15 3 1 14 -5 25 -15 50 -41 171 -127
180 -127 10 0 122 16 408 59 98 15 187 21 308 21 l169 0 0 -285 0 -285 -22 -9
c-13 -5 -68 -11 -123 -15 -130 -9 -184 -20 -228 -46 l-35 -21 29 -57 c33 -62
49 -83 49 -64 0 7 5 12 11 12 8 0 8 -4 0 -13 -11 -14 -1 -68 18 -90 9 -12 11
-18 11 -38 0 -5 5 -7 10 -4 6 4 10 -8 10 -29 0 -20 4 -36 10 -36 5 0 6 -7 3
-17 -4 -9 -2 -14 3 -11 5 3 9 -6 10 -21 1 -42 14 -82 23 -77 4 3 6 -7 3 -22
-5 -24 -4 -26 11 -13 18 14 24 2 7 -15 -7 -7 -5 -36 5 -90 25 -136 37 -293 33
-444 -1 -80 -5 -147 -9 -150 -9 -8 -36 -199 -27 -194 4 3 8 0 8 -5 0 -6 -4
-11 -9 -11 -12 0 -54 -133 -56 -175 0 -5 -3 -12 -7 -15 -4 -3 -9 -17 -10 -30
-2 -14 -6 -27 -9 -30 -4 -3 -18 -32 -32 -65 -14 -33 -37 -82 -50 -110 -18 -36
-22 -55 -15 -68 5 -10 13 -15 19 -12 5 4 9 2 9 -3 0 -10 103 -28 215 -37 39
-3 85 -8 103 -11 l32 -5 0 -314 0 -315 -179 0 c-98 0 -203 5 -232 10 -148 29
-457 78 -483 76 -15 -1 -34 -9 -41 -19 -6 -9 -14 -14 -17 -12 -3 3 -11 -2 -18
-11 -12 -13 -11 -17 1 -25 12 -7 11 -9 -3 -9 -9 0 -18 5 -20 11 -2 6 -15 -1
-30 -14 -15 -14 -29 -22 -32 -19 -3 3 -6 0 -6 -6 0 -7 -7 -12 -15 -12 -8 0
-15 -5 -15 -11 0 -5 5 -7 12 -3 7 4 8 3 4 -4 -4 -6 -13 -9 -20 -6 -14 6 -192
-84 -189 -95 1 -4 -8 -8 -20 -8 -29 -3 -167 -64 -167 -74 0 -5 -5 -9 -11 -9
-5 0 -8 4 -5 9 3 5 -15 2 -42 -6 -85 -27 -235 -62 -327 -75 -117 -16 -415 -16
-530 1 -49 7 -99 15 -110 16 -23 3 -99 22 -135 34 -100 33 -101 33 -116 20
-12 -10 -13 -9 -9 3 4 10 -7 19 -37 29 -24 8 -45 14 -48 14 -3 1 -15 6 -26 13
-12 6 -35 13 -52 14 -17 1 -29 5 -26 9 5 9 -14 23 -56 39 -19 8 -37 17 -40 20
-3 4 -18 14 -35 22 -16 8 -51 27 -77 41 -25 14 -50 22 -54 19 -4 -4 -4 -1 0 6
5 7 0 15 -13 20 -11 4 -41 25 -67 47 -25 22 -50 41 -55 41 -5 1 -14 2 -20 3
-5 0 -8 5 -4 10 8 13 -52 54 -66 45 -8 -4 -9 -3 -5 4 4 7 -3 22 -15 34 -12 13
-19 18 -16 12 3 -6 0 -11 -7 -11 -8 0 -12 6 -9 13 2 7 -8 26 -24 44 l-29 32
-42 -39 c-23 -21 -42 -44 -42 -51 0 -18 10 -15 36 13 29 31 32 31 68 0 16 -14
33 -25 38 -25 5 0 6 -5 2 -12 -5 -8 -2 -9 10 -5 11 4 15 3 10 -4 -5 -9 50 -65
72 -72 3 -1 25 -19 47 -40 27 -25 48 -36 60 -33 14 3 17 0 12 -12 -3 -9 -3
-13 1 -9 4 3 15 -3 25 -14 10 -12 23 -18 30 -13 8 4 9 3 5 -4 -4 -7 2 -16 16
-22 13 -6 38 -19 56 -30 19 -11 31 -15 27 -8 -4 7 2 4 12 -7 40 -45 255 -140
289 -129 13 4 15 3 6 -3 -22 -16 183 -76 378 -110 160 -28 452 -25 627 6 73
13 132 26 131 30 -2 18 3 24 11 13 6 -10 17 -11 54 -1 26 6 45 14 43 18 -2 3
8 6 23 7 57 2 372 139 431 188 8 6 27 17 43 24 15 6 27 16 27 22 0 5 6 10 13
10 7 0 22 7 32 15 80 61 94 73 90 77 -3 3 20 1 51 -3 31 -4 62 -5 70 -2 8 3
14 0 14 -7 0 -6 10 -10 23 -9 12 2 31 0 42 -3 11 -4 37 -9 58 -13 34 -5 38 -9
35 -33 -2 -19 -8 -26 -20 -24 -9 1 -24 -8 -32 -20 -9 -12 -16 -18 -16 -13 0 4
-11 -2 -25 -15 -14 -13 -23 -30 -20 -38 4 -12 3 -12 -9 -3 -11 9 -18 6 -35
-15 -12 -15 -21 -23 -21 -19 0 5 -9 -2 -20 -15 -11 -13 -20 -20 -20 -15 0 4
-7 2 -15 -5 -8 -7 -12 -17 -8 -23 3 -6 1 -7 -6 -3 -13 8 -81 -30 -81 -45 0 -6
-4 -8 -9 -4 -6 3 -14 -3 -20 -12 -6 -10 -11 -15 -11 -10 0 4 -14 0 -30 -8 -18
-9 -28 -21 -24 -27 4 -6 3 -8 -2 -5 -14 8 -166 -68 -156 -78 4 -5 1 -5 -6 -1
-7 4 -32 -2 -55 -13 -75 -37 -357 -128 -417 -135 -14 -2 -74 -11 -135 -21
-152 -25 -497 -26 -643 -2 -57 10 -107 15 -112 12 -6 -4 -10 -2 -10 3 0 6 -10
10 -22 10 -13 -1 -36 4 -53 10 -58 20 -176 53 -195 55 -11 1 -20 4 -20 8 0 3
-19 11 -42 18 -64 20 -269 114 -310 143 -16 11 -28 16 -28 11 0 -4 -4 -3 -8 2
-4 6 -38 30 -77 55 -38 24 -87 57 -107 73 -21 16 -38 26 -38 23 0 -3 -8 2 -18
12 -55 53 -128 107 -144 106 -14 -1 -16 2 -7 12 8 10 5 15 -15 20 -14 3 -26
12 -26 18 0 23 -22 37 -39 24 -13 -10 -14 -10 -4 2 8 8 9 18 4 24 -6 7 5 26
30 53 22 24 43 43 47 43 11 0 8 20 -3 21 -5 1 -16 -9 -22 -22 -7 -13 -13 -20
-13 -16 0 5 -14 -1 -30 -13 -17 -12 -28 -25 -26 -28 4 -8 -13 -26 -29 -31 -12
-4 -74 -58 -72 -63 7 -13 -30 32 -39 48 -10 18 -7 25 27 53 21 19 36 37 33 42
-3 5 0 9 7 9 6 0 23 11 38 25 121 113 143 134 149 137 21 10 4 41 -61 113 -10
11 -36 46 -57 77 -21 31 -41 54 -44 51 -3 -4 -6 1 -6 10 0 9 -5 17 -12 17 -6
0 -8 3 -5 7 4 3 1 13 -7 22 -8 9 -15 19 -15 24 -2 23 -32 78 -40 73 -5 -4 -9
2 -9 11 2 21 -50 135 -66 145 -6 4 -8 8 -4 8 4 0 -4 30 -18 68 -30 76 -73 222
-79 267 -3 17 -9 53 -15 80 -20 102 -32 274 -28 420 1 83 6 152 9 155 3 3 12
46 21 95 11 65 12 92 4 97 -8 6 -8 8 0 8 7 0 15 7 18 16 4 10 2 13 -7 8 -8 -6
-8 -3 1 9 8 9 10 22 6 28 -4 8 -3 9 4 5 12 -7 24 28 26 75 1 15 4 25 9 22 12
-7 8 12 -5 25 -18 18 -31 14 -25 -8 3 -11 1 -20 -4 -20 -5 0 -9 -5 -9 -11 0
-5 5 -7 10 -4 6 3 10 1 10 -4 0 -6 -6 -11 -14 -11 -15 0 -51 -138 -78 -300
-16 -97 -16 -441 1 -545 20 -132 62 -299 80 -319 9 -11 11 -16 4 -13 -7 5 -9
0 -6 -13 3 -11 8 -18 12 -16 3 2 7 -8 8 -22 0 -15 6 -28 12 -30 6 -2 9 -7 6
-11 -8 -14 46 -141 58 -134 5 3 7 2 4 -4 -7 -11 41 -116 55 -121 4 -2 8 -9 8
-15 0 -15 89 -155 114 -179 10 -10 14 -18 11 -18 -4 0 16 -29 44 -64 28 -35
51 -68 51 -73 0 -5 -11 -16 -25 -23 -13 -7 -27 -22 -31 -32 -3 -10 -9 -16 -14
-13 -5 3 -21 -10 -35 -29 -27 -36 -89 -68 -79 -41 3 7 -4 18 -15 25 -12 6 -21
15 -21 21 0 20 -82 119 -94 112 -6 -3 -8 -3 -4 2 9 9 -14 56 -37 75 -9 7 -25
35 -37 61 -12 30 -25 46 -32 42 -6 -3 -8 -3 -4 1 3 4 -16 51 -42 104 -62 125
-92 197 -125 302 -15 47 -32 91 -38 98 -5 6 -7 12 -4 12 3 0 1 17 -4 38 -6 20
-21 98 -36 172 -23 122 -26 158 -26 375 0 216 2 253 25 375 15 74 33 162 41
195 9 33 13 63 11 66 -2 4 0 9 4 11 9 3 67 176 65 195 0 7 2 11 6 8 8 -4 48
85 43 97 -1 5 3 8 10 8 6 0 8 3 5 6 -4 4 2 19 13 34 11 16 20 33 20 40 0 6 12
27 26 46 15 19 23 34 20 34 -4 0 -2 6 4 13 25 28 78 117 67 112 -7 -4 -5 -1 3
7 9 7 29 31 45 53 39 52 54 71 88 110 28 34 35 51 15 39 -7 -4 -8 -3 -4 4 14
22 41 12 88 -33 28 -28 49 -42 53 -35 8 14 -85 101 -102 95 -7 -2 -10 2 -7 9
5 13 -51 68 -60 59 -3 -4 -6 3 -6 13 0 11 16 36 36 55 19 18 33 27 29 18 -6
-16 96 -121 121 -125 20 -3 17 10 -6 31 -12 10 -19 24 -16 31 2 6 -1 18 -7 25
-10 11 -9 11 4 1 13 -9 23 -4 61 31 61 56 131 117 136 117 5 0 95 71 107 85 6
7 12 12 15 12 3 0 30 15 60 34 113 70 126 78 178 104 28 15 52 31 52 36 0 5 9
9 20 9 16 0 103 34 210 82 30 14 26 13 73 22 20 5 37 12 37 18 0 5 4 7 8 4 5
-3 24 -1 43 4 102 28 253 56 399 74 89 11 429 -3 545 -23z m1728 -62 c12 -7
25 -17 29 -23 4 -6 8 -116 8 -243 l0 -233 -160 0 -160 0 0 230 0 231 25 24
c23 23 31 25 130 25 61 0 116 -5 128 -11z m-3800 -262 c104 -94 113 -116 70
-156 -36 -34 -93 -99 -93 -106 0 -2 -21 -24 -46 -47 -25 -23 -50 -52 -55 -64
-4 -13 -20 -25 -38 -29 -32 -7 -43 0 -126 82 -24 24 -49 44 -56 45 -15 3 -39
43 -39 65 0 8 -5 11 -12 7 -7 -4 -8 -3 -4 5 4 6 12 9 17 6 13 -9 11 9 -3 24
-11 11 -10 12 0 7 16 -10 62 20 62 39 0 8 3 14 8 13 4 -2 7 0 7 3 0 3 27 31
60 63 33 31 60 60 60 65 0 14 59 60 78 61 10 0 59 -37 110 -83z m3727 -909 c8
-13 14 -25 15 -28 1 -22 41 -98 48 -93 6 3 7 1 4 -4 -6 -10 20 -103 32 -113 3
-3 7 -14 9 -25 2 -11 11 -47 21 -80 92 -299 115 -733 56 -1017 -9 -40 -13 -78
-11 -85 3 -7 2 -13 -2 -13 -4 0 -14 -28 -21 -62 -7 -35 -19 -76 -26 -93 -27
-63 -46 -135 -39 -146 4 -7 3 -9 -3 -6 -12 7 -65 -121 -56 -136 3 -6 1 -7 -5
-3 -7 4 -12 1 -12 -7 0 -18 -58 -28 -84 -15 -10 6 -39 8 -62 5 -26 -2 -44 0
-44 5 0 6 -7 8 -15 4 -8 -3 -15 -1 -15 4 0 6 -7 10 -15 10 -19 0 -19 -2 5 44
10 22 17 43 13 49 -3 6 -1 7 5 4 9 -6 63 117 77 176 3 12 17 57 32 100 22 66
24 80 12 88 -13 8 -6 13 14 10 4 -1 7 4 6 11 -2 7 2 31 8 53 25 91 38 230 38
410 0 105 -4 199 -9 210 -5 11 -8 27 -7 35 2 24 -25 168 -49 258 -16 59 -25
80 -32 70 -6 -9 -7 -5 -3 11 8 26 -35 147 -96 271 -31 62 -35 77 -23 86 7 6
11 14 8 17 -3 3 2 4 11 3 10 -1 34 1 54 5 20 4 61 7 91 8 47 1 57 -2 70 -21z
m-3802 -2526 c13 -14 26 -21 33 -16 7 4 9 3 6 -4 -8 -12 18 -47 80 -107 63
-62 64 -83 8 -136 -26 -24 -51 -55 -57 -69 -6 -17 -12 -20 -17 -12 -5 9 -15 4
-34 -18 -29 -32 -79 -41 -94 -16 -20 35 -187 205 -196 199 -6 -3 -7 -1 -3 6 4
7 -2 19 -15 30 -18 15 -21 23 -15 55 4 20 11 34 15 32 4 -3 17 5 28 17 42 45
136 122 157 128 16 4 29 -3 52 -30 18 -20 41 -47 52 -59z m3912 -338 c0 -179
-3 -238 -13 -247 -31 -28 -55 -33 -159 -27 -157 8 -148 -9 -148 277 l0 233
160 0 160 0 0 -236z"/>
<path d="M3779 5896 c-2 -2 -26 -7 -52 -10 -129 -17 -317 -64 -317 -78 0 -5
-5 -6 -10 -3 -14 9 -297 -113 -323 -139 -12 -11 -29 -21 -37 -21 -8 0 -14 -6
-12 -13 1 -8 -2 -11 -7 -8 -9 6 -81 -31 -81 -41 0 -2 5 -1 10 2 6 3 10 4 10 1
0 -3 -10 -10 -21 -17 -17 -9 -20 -8 -13 2 4 7 -21 -9 -57 -36 -81 -62 -90 -71
-81 -80 4 -5 2 -5 -4 -2 -14 8 -37 -17 -26 -28 4 -5 1 -5 -6 0 -15 8 -74 -49
-63 -61 3 -4 1 -4 -5 -1 -6 4 -21 -4 -34 -18 -20 -22 -21 -25 -7 -39 12 -12
17 -13 20 -3 4 9 6 9 6 -1 1 -7 19 -30 41 -52 42 -41 50 -67 25 -76 -8 -4 -13
-10 -10 -14 12 -19 -27 -17 -48 3 -13 12 -32 28 -43 35 -10 7 -12 10 -4 6 8
-4 -1 7 -20 24 -36 32 -50 39 -50 23 0 -4 -15 -24 -34 -44 -52 -55 -138 -186
-130 -199 4 -7 3 -8 -4 -4 -14 8 -46 -50 -38 -69 3 -9 0 -12 -10 -8 -12 5 -19
-7 -15 -29 0 -5 -3 -8 -9 -8 -9 0 -88 -158 -94 -190 -2 -8 -10 -31 -19 -50
-26 -60 -65 -208 -88 -340 -26 -147 -31 -418 -10 -565 19 -133 61 -297 80
-313 9 -7 10 -11 4 -7 -7 3 -13 4 -13 1 0 -15 83 -216 89 -216 4 0 7 -10 8
-22 1 -11 7 -24 13 -28 7 -4 12 -10 11 -13 -1 -21 32 -78 43 -74 7 3 13 -1 13
-9 0 -7 -4 -11 -9 -8 -4 3 -8 3 -8 0 0 -3 12 -13 28 -21 15 -9 19 -14 9 -11
-17 6 -17 5 0 -24 9 -16 28 -41 40 -55 13 -14 21 -25 18 -25 -3 0 2 -11 11
-25 19 -29 36 -33 28 -7 -5 14 -4 14 4 2 6 -8 7 -19 2 -25 -5 -6 11 -32 40
-67 l47 -57 58 53 c35 32 55 57 51 64 -11 18 25 3 52 -21 29 -27 28 -32 -13
-69 -20 -17 -33 -33 -30 -36 9 -9 -17 -32 -28 -25 -6 4 -8 0 -4 -10 3 -9 2
-19 -3 -22 -5 -3 -11 2 -13 10 -4 11 -4 10 -3 -2 1 -10 9 -17 19 -17 9 1 14
-3 11 -8 -9 -14 27 -50 43 -43 8 2 11 0 8 -5 -3 -6 -1 -10 5 -10 6 0 9 -4 5
-9 -3 -5 -1 -12 5 -16 5 -3 10 -1 10 5 0 6 5 8 10 5 6 -4 8 -10 5 -14 -2 -5 4
-16 14 -25 15 -13 20 -14 24 -4 3 7 6 3 6 -10 1 -13 5 -20 11 -17 6 3 10 2 10
-4 0 -10 125 -101 139 -101 4 0 16 -9 26 -20 10 -12 25 -18 32 -15 8 2 12 1 9
-4 -7 -10 23 -25 43 -22 7 1 10 -2 7 -7 -6 -11 41 -35 54 -27 5 3 12 0 16 -6
5 -8 3 -9 -7 -4 -10 6 -11 5 -4 -3 14 -15 85 -44 85 -35 0 5 4 3 8 -4 12 -19
185 -81 312 -113 110 -27 234 -47 310 -50 201 -7 261 -6 360 5 150 17 191 25
184 36 -3 6 4 7 18 4 26 -6 161 30 166 44 2 6 10 7 17 5 8 -3 29 2 47 11 18 9
54 23 80 31 37 12 46 18 41 32 -5 13 -3 14 7 5 9 -8 21 -7 49 4 20 8 41 20 46
25 7 8 6 8 -4 3 -10 -6 -12 -4 -7 4 5 7 13 10 20 8 19 -7 58 12 50 24 -4 7 -3
9 4 5 11 -7 79 31 167 93 l49 36 -54 12 c-30 7 -73 14 -95 15 -22 2 -45 6 -50
10 -6 3 -32 9 -60 13 -27 3 -110 18 -184 31 -85 16 -146 22 -165 18 -28 -7
-25 -9 34 -21 36 -7 79 -10 95 -7 19 3 25 2 17 -4 -9 -6 13 -13 65 -20 43 -6
87 -13 98 -15 11 -3 52 -10 90 -16 99 -18 98 -17 78 -39 -10 -10 -20 -17 -21
-16 -4 3 -103 -55 -112 -65 -3 -4 -9 -7 -15 -8 -5 -1 -59 -25 -120 -54 -60
-29 -113 -52 -117 -51 -3 1 -33 -7 -65 -18 -61 -19 -157 -44 -208 -53 l-30 -6
2 207 c3 192 4 207 20 204 10 -1 35 -3 55 -5 21 -1 38 -5 38 -9 0 -10 49 -9
74 1 11 4 -43 18 -150 36 -185 33 -494 48 -494 25 0 -7 -6 -5 -15 4 -12 12
-15 49 -15 201 0 182 1 186 23 209 l24 24 391 -5 c355 -5 395 -3 436 12 25 10
46 22 46 26 0 5 6 9 13 9 13 0 72 62 72 77 1 4 10 24 20 43 18 31 20 59 23
258 2 143 0 222 -7 222 -5 0 -12 8 -14 18 -3 9 -5 -92 -5 -226 -1 -226 -2
-246 -21 -278 -12 -19 -16 -34 -9 -34 10 0 -50 -49 -91 -75 -9 -5 -18 -12 -21
-15 -13 -13 -63 -15 -437 -11 l-403 4 -29 -29 -29 -29 1 -217 c1 -119 0 -212
-3 -208 -3 4 -24 7 -48 6 -32 -2 -50 -10 -70 -29 -27 -27 -27 -29 -31 -187 -2
-100 1 -171 8 -191 6 -18 9 -34 6 -37 -2 -2 -45 5 -95 17 -49 12 -100 19 -113
16 -16 -5 -18 -4 -8 4 12 8 10 11 -10 16 -13 3 -34 7 -46 8 -12 0 -19 5 -17 9
3 4 -2 8 -10 8 -25 0 -29 1 -69 22 -22 11 -45 17 -53 14 -8 -3 -12 -2 -9 3 3
5 -4 13 -16 16 -11 4 -66 32 -122 64 -137 76 -148 83 -171 104 -12 10 -29 16
-39 13 -13 -3 -17 0 -13 9 7 19 -20 39 -41 31 -10 -4 -14 -4 -11 0 12 12 -11
44 -27 38 -8 -4 -15 -1 -15 6 0 7 -25 37 -55 66 -30 30 -55 58 -55 63 0 5 19
25 42 44 l41 35 47 -50 c26 -27 55 -51 66 -52 22 -4 66 32 58 46 -3 5 -14 2
-25 -8 -12 -11 -26 -14 -45 -10 -14 4 -24 9 -21 12 10 10 -37 55 -51 49 -7 -2
-10 -1 -7 4 5 9 -59 92 -89 116 -7 6 -18 20 -25 33 -6 12 -19 22 -27 22 -9 0
-12 5 -8 12 4 6 3 8 -3 5 -6 -4 -16 6 -23 22 -9 23 -9 33 2 50 7 12 16 21 19
21 3 0 18 11 33 25 22 20 31 23 47 15 10 -6 19 -16 19 -21 0 -6 7 -9 15 -5 10
3 15 -1 15 -13 0 -11 14 -31 31 -45 17 -14 28 -26 25 -26 -2 0 14 -20 36 -45
23 -25 47 -45 55 -45 7 0 12 -3 11 -7 -5 -14 45 -72 56 -66 6 3 8 3 4 -2 -4
-4 -3 -14 3 -22 9 -9 8 -13 0 -13 -6 0 -11 -7 -11 -15 0 -20 16 -19 24 1 11
30 6 44 -40 95 l-46 51 33 34 c24 25 28 34 17 34 -9 0 -25 -10 -35 -23 -10
-13 -25 -27 -33 -32 -8 -4 -12 -4 -7 0 4 5 -5 22 -20 37 -22 23 -25 31 -14 37
7 5 11 14 7 20 -5 7 -1 9 8 5 11 -4 16 0 16 11 0 9 4 14 9 11 10 -7 33 18 26
27 -3 4 -2 5 1 2 6 -4 95 72 206 178 26 25 77 71 112 103 36 31 63 61 60 66
-3 5 -1 7 4 6 5 -2 23 11 40 29 17 17 34 28 38 25 4 -4 4 -1 0 6 -4 7 -2 12 5
12 7 0 21 7 31 17 17 15 19 15 39 -3 23 -20 47 -60 31 -50 -5 3 -25 -11 -44
-32 -19 -20 -58 -57 -87 -82 -72 -61 -81 -70 -81 -81 0 -5 -4 -8 -9 -7 -4 2
-30 -18 -56 -44 -26 -27 -51 -48 -55 -48 -4 0 -10 -9 -13 -20 -3 -11 -11 -19
-18 -18 -6 2 -23 -12 -36 -31 -12 -19 -23 -30 -23 -25 -1 5 -10 -2 -20 -15
-11 -13 -20 -20 -20 -16 0 5 -11 -4 -25 -19 -29 -32 -30 -36 -9 -36 9 0 18 9
21 20 3 11 11 20 18 20 7 0 25 14 38 30 14 17 31 30 37 30 6 0 8 5 5 10 -3 6
-1 10 4 10 6 0 34 23 63 50 28 27 56 50 61 50 5 0 7 7 4 14 -4 10 -1 13 7 10
8 -3 29 13 48 35 19 23 38 41 43 41 4 0 28 21 54 46 25 25 60 58 77 73 38 34
49 60 29 67 -8 4 -15 12 -15 19 0 6 -9 20 -20 30 -19 17 -21 17 -42 -1 -23
-19 -23 -19 -5 2 22 26 22 40 -2 56 -10 7 -19 17 -19 21 -2 21 -45 96 -53 91
-5 -3 -9 -10 -9 -15 0 -6 5 -7 12 -3 7 4 8 3 4 -5 -5 -7 8 -38 29 -73 l36 -61
-33 -36 c-18 -19 -42 -42 -53 -50 -21 -16 -158 -144 -206 -193 -15 -16 -32
-28 -38 -28 -6 0 -11 -7 -11 -17 0 -9 -3 -13 -7 -10 -9 10 -63 -43 -63 -62 0
-8 -3 -11 -6 -8 -4 4 -15 -3 -25 -15 -11 -11 -19 -17 -19 -13 0 4 -26 -19 -58
-52 -52 -53 -104 -91 -87 -63 9 14 -89 110 -112 110 -22 0 -53 -29 -53 -49 0
-7 -4 -9 -10 -6 -5 3 -10 1 -10 -4 0 -6 -6 -11 -13 -11 -7 0 -18 -9 -25 -20
-17 -27 3 -66 60 -114 l42 -36 -22 -16 c-12 -8 -19 -20 -16 -26 4 -6 3 -8 -3
-5 -5 4 -20 -5 -32 -19 -16 -19 -25 -23 -35 -15 -7 6 -16 8 -20 4 -4 -4 -4 0
0 10 3 9 1 17 -4 17 -6 0 -14 9 -17 20 -3 11 -13 20 -21 20 -8 0 -13 4 -10 9
5 8 -17 42 -56 85 -10 11 -18 25 -18 32 0 7 -8 18 -17 23 -10 6 -15 11 -10 11
11 0 -22 60 -33 60 -6 0 -9 3 -8 8 5 14 -35 92 -43 86 -5 -3 -6 1 -3 9 3 8 -2
21 -10 30 -8 8 -13 17 -10 20 3 3 0 13 -6 24 -6 10 -23 53 -38 96 -16 42 -31
75 -34 72 -3 -4 -6 4 -6 17 1 13 -11 75 -25 138 -64 282 -58 582 15 860 17 63
30 123 30 133 0 9 4 17 10 17 6 0 8 9 5 20 -3 11 -2 18 2 15 8 -4 68 136 62
144 -1 2 1 7 6 10 19 12 83 143 77 154 -4 7 -4 9 1 5 4 -4 19 10 33 30 13 20
50 72 81 116 31 43 55 82 54 86 -1 4 6 7 15 7 15 0 92 -63 92 -77 0 -3 -20
-27 -44 -54 -24 -26 -46 -56 -49 -67 -8 -31 99 -134 129 -122 20 7 17 23 -4
23 -10 0 -39 19 -64 43 l-47 43 18 27 c9 15 32 40 50 56 18 16 32 32 32 35 -3
18 0 29 5 23 6 -6 43 30 137 131 l48 51 38 -37 c21 -20 46 -43 55 -51 15 -11
15 -15 4 -22 -10 -7 -9 -9 5 -9 33 0 17 38 -34 84 -53 47 -83 57 -93 31 -3 -8
-10 -14 -14 -13 -11 3 -72 -62 -72 -76 0 -5 -9 3 -21 18 -11 14 -24 24 -28 22
-8 -6 -41 29 -41 44 0 5 6 13 14 17 8 4 46 38 84 74 39 37 78 69 87 73 9 3 13
11 10 16 -4 6 -3 10 2 9 19 -3 27 2 15 10 -10 6 -9 10 7 14 12 3 19 1 15 -5
-3 -5 3 -4 14 3 12 7 23 21 25 31 3 12 11 16 21 12 9 -3 16 -1 16 6 0 6 4 9
10 5 5 -3 18 3 30 15 11 11 22 20 25 20 3 0 10 0 16 0 5 0 7 5 4 10 -3 6 -1
10 5 10 6 0 8 6 4 13 -5 9 -4 9 6 0 11 -10 24 -7 64 15 28 16 78 39 111 52 33
12 74 29 90 36 64 27 312 90 321 81 2 -2 -1 -20 -7 -42 -6 -22 -9 -103 -7
-191 3 -136 5 -156 24 -181 17 -23 30 -28 69 -31 27 -1 51 -4 53 -6 2 -3 3
-101 3 -219 l-2 -215 31 -26 c23 -19 43 -26 73 -26 52 0 653 20 687 23 31 2
150 -33 150 -45 0 -4 6 -8 13 -8 13 0 77 -97 77 -118 0 -7 3 -12 8 -12 4 0 6
-164 4 -364 -2 -319 -1 -364 13 -369 13 -6 15 33 15 341 0 200 -5 366 -11 392
-11 50 -55 124 -68 115 -5 -2 -11 3 -13 13 -6 23 -82 64 -103 56 -8 -4 -15 -1
-15 6 0 8 -85 9 -352 4 -492 -11 -447 -13 -469 15 -17 21 -19 42 -19 232 0
160 3 209 13 210 6 0 92 0 190 -1 120 -1 177 2 177 9 0 13 9 13 -207 11 l-172
-1 -3 218 c-3 191 -1 222 15 253 9 19 17 36 17 37 0 5 -86 4 -91 -1z m39 -293
l2 -213 -29 0 c-16 0 -38 -3 -48 -6 -15 -5 -15 -4 -3 5 13 9 13 11 0 11 -35 0
-41 36 -39 223 1 100 3 184 4 187 2 3 28 6 57 5 l53 0 3 -212z m346 -2998 c3
-8 6 -110 7 -227 l1 -213 -25 -27 c-24 -28 -26 -28 -145 -28 -170 0 -162 -15
-162 281 l0 229 159 0 c131 0 160 -3 165 -15z m-344 -214 l0 -209 -36 -7 c-27
-5 -41 -2 -57 12 -11 10 -17 13 -14 6 4 -6 3 -14 -2 -17 -6 -4 -10 61 -11 161
0 93 -2 180 -4 195 -4 35 28 65 74 70 19 2 38 2 43 0 4 -2 7 -97 7 -211z m466
187 c17 -21 19 -37 16 -183 -3 -169 -12 -215 -43 -215 -11 0 -19 -5 -19 -11 0
-6 -5 -7 -12 -2 -13 8 -18 9 -38 12 -11 1 -14 403 -3 414 3 4 23 7 43 7 25 0
42 -7 56 -22z"/>
<path d="M4140 5880 c11 -11 22 -30 25 -43 6 -22 10 -23 51 -17 24 4 44 3 44
-1 0 -4 9 -11 20 -14 19 -6 20 -15 20 -190 l0 -183 -31 -26 -31 -26 27 0 c14
0 24 3 22 8 -3 4 27 8 65 9 39 2 76 7 83 13 6 5 14 8 17 5 3 -3 81 6 174 20
93 14 206 31 251 37 45 6 80 14 78 17 -1 3 25 7 58 8 34 1 63 7 65 13 2 6 17
8 38 4 19 -3 34 -2 34 2 0 12 -210 147 -285 184 -32 16 -62 27 -67 24 -4 -3
-8 -1 -8 4 0 12 -56 33 -64 25 -3 -4 -6 -1 -6 6 0 8 -6 11 -16 7 -8 -3 -13 -2
-10 3 7 11 -112 53 -125 45 -5 -3 -9 -1 -9 5 0 18 -309 80 -402 81 -38 0 -38
0 -18 -20z m203 -65 c207 -42 325 -83 522 -183 30 -15 46 -19 40 -10 -6 7 0 3
12 -10 14 -17 27 -23 38 -18 12 4 16 2 12 -8 -5 -13 38 -42 56 -38 4 1 7 -4 7
-11 0 -15 -60 -28 -235 -52 -177 -24 -437 -65 -445 -70 -4 -2 -16 3 -26 11
-10 9 -14 13 -7 10 9 -5 12 39 13 174 0 149 -2 181 -14 186 -8 3 -17 12 -20
21 -5 11 -2 13 10 9 9 -3 26 -8 37 -11z"/>
<path d="M2359 5138 c-1 -7 -1 -17 0 -21 1 -5 -3 -6 -8 -3 -10 6 -81 -103 -85
-130 -1 -9 -7 -19 -12 -22 -15 -12 -44 -69 -37 -76 3 -3 2 -6 -4 -6 -10 0 -21
-22 -60 -117 -40 -99 -41 -106 -26 -121 17 -17 22 -14 25 19 2 13 7 27 11 30
5 3 9 12 11 20 1 8 10 28 19 46 9 17 14 40 10 49 -4 11 -3 15 4 11 10 -6 53
69 53 92 0 5 3 11 8 13 4 2 16 21 27 43 11 22 23 45 28 50 30 40 57 89 57 105
0 21 -19 38 -21 18z"/>
<path d="M2801 4993 c-53 -61 -70 -88 -62 -96 7 -7 15 -1 25 24 9 19 15 30 16
24 0 -5 12 3 26 18 l26 29 42 -41 c23 -23 45 -38 49 -35 4 4 7 -1 7 -11 0 -10
3 -16 6 -12 3 3 19 -8 35 -24 16 -17 34 -27 39 -24 6 3 11 1 11 -4 1 -6 2 -15
3 -21 0 -5 12 -17 25 -26 13 -10 49 -43 80 -74 31 -31 88 -85 126 -121 39 -35
96 -87 127 -115 48 -44 53 -52 38 -61 -26 -17 -86 -140 -109 -223 -24 -86 -37
-220 -27 -275 12 -61 20 -31 29 103 12 183 11 180 18 176 9 -5 29 68 22 79 -3
6 -1 7 5 3 7 -4 12 -1 12 8 0 26 2 30 19 43 9 7 12 13 8 13 -5 0 -1 7 7 16 9
8 13 20 10 26 -4 6 -2 8 3 5 6 -4 19 6 28 21 10 15 44 53 76 84 35 34 55 59
49 63 -6 4 -20 -1 -30 -10 -23 -21 -39 -13 -105 54 -27 28 -52 51 -55 51 -3 0
-53 45 -110 100 -57 55 -110 100 -118 100 -7 0 -11 4 -7 9 3 5 -12 22 -32 38
-21 15 -48 40 -61 56 -13 15 -28 27 -34 27 -5 0 -26 19 -47 41 -61 68 -81 63
-170 -38z m146 35 c21 -18 41 -37 45 -43 4 -5 12 -11 18 -11 5 -1 16 -2 23 -3
9 -1 9 -3 -1 -9 -8 -6 -3 -15 20 -32 18 -14 38 -25 43 -25 6 0 10 -5 10 -12 0
-12 75 -86 75 -74 0 3 5 -1 10 -9 5 -8 15 -15 22 -15 7 -1 12 -6 11 -12 -2 -7
18 -29 44 -50 26 -21 65 -57 87 -80 22 -23 43 -40 47 -37 4 2 10 -5 14 -16 3
-11 15 -20 26 -20 10 0 19 -6 19 -13 0 -8 9 -22 20 -32 l20 -18 -20 -22 c-11
-12 -17 -25 -13 -30 5 -4 2 -5 -4 -1 -7 4 -13 2 -13 -4 0 -6 -13 4 -30 22 -16
18 -30 29 -30 24 0 -4 -12 6 -26 23 -14 17 -34 31 -44 31 -10 0 -22 4 -25 10
-4 6 1 7 12 4 10 -3 -2 12 -26 35 -24 22 -49 39 -55 38 -6 -1 -10 3 -9 10 1 6
-15 26 -37 45 -21 18 -85 77 -142 131 -56 54 -107 96 -114 93 -6 -2 -11 3 -10
12 0 10 -6 17 -16 17 -9 0 -20 4 -24 8 -4 4 -1 7 7 7 8 0 4 6 -9 16 -12 8 -20
19 -17 24 3 4 -1 11 -7 13 -9 4 -7 6 3 6 9 1 22 8 29 16 17 21 24 19 67 -17z"/>
<path d="M5665 4910 c-3 -5 -3 -15 1 -22 4 -6 3 -8 -3 -5 -15 10 -39 -22 -60
-78 -17 -47 -18 -99 -18 -790 0 -790 -1 -776 49 -852 21 -33 42 -37 69 -15 13
12 29 52 26 68 0 4 4 10 9 13 23 14 113 276 116 336 0 16 4 32 8 35 34 26 60
615 27 594 -5 -3 -6 9 -3 25 9 43 -38 286 -68 351 -6 14 -12 30 -12 35 -2 18
-28 89 -44 120 -9 17 -17 35 -18 40 -4 22 -55 124 -64 130 -6 4 -8 11 -5 16 4
5 4 9 1 9 -3 0 -8 -4 -11 -10z m14 -135 c19 -42 41 -65 26 -27 -5 14 -4 15 6
5 10 -10 10 -16 2 -24 -8 -8 -5 -25 10 -63 12 -28 25 -53 29 -54 5 -2 6 -7 3
-12 -2 -4 4 -34 14 -66 52 -165 74 -324 73 -529 0 -178 -5 -280 -14 -305 -17
-45 -57 -244 -51 -253 3 -5 2 -7 -4 -4 -6 4 -16 -12 -22 -36 -12 -40 -33 -92
-52 -129 -12 -23 -11 -31 1 -23 6 3 10 1 10 -4 0 -6 -6 -11 -13 -11 -7 0 -21
-15 -29 -32 l-16 -33 -19 40 c-17 38 -18 85 -21 792 -2 650 0 758 13 789 17
42 28 38 54 -21z"/>
<path d="M2385 4715 l-25 -24 0 -691 0 -691 25 -24 c13 -14 29 -25 35 -25 15
0 52 39 45 50 -3 5 -1 11 5 15 14 9 14 1341 0 1350 -6 4 -8 10 -5 15 7 11 -30
50 -45 50 -6 0 -22 -11 -35 -25z m56 -27 c10 -19 19 -1388 9 -1385 -3 1 -15
-4 -27 -11 -20 -11 -23 -10 -29 13 -3 14 -9 23 -13 21 -3 -2 -6 301 -6 674 0
373 3 676 8 673 6 -4 11 18 9 38 -2 15 39 -5 49 -23z"/>
<path d="M3877 4584 c-82 -18 -177 -58 -177 -75 0 -7 -3 -9 -6 -6 -17 17 -156
-111 -197 -182 -20 -34 -5 -44 15 -11 13 20 48 28 48 10 0 -5 7 -7 15 -3 10 3
15 1 13 -7 -2 -6 43 -53 98 -103 56 -51 102 -100 103 -109 1 -17 -14 -18 -178
-18 l-178 0 8 47 c5 25 20 70 33 98 22 49 22 52 5 48 -10 -3 -16 -9 -13 -14 3
-5 -2 -16 -10 -25 -9 -9 -14 -20 -11 -25 4 -5 2 -9 -3 -9 -10 0 -42 -135 -42
-175 0 -16 6 -25 16 -25 11 0 14 8 12 26 l-3 25 179 0 c98 0 181 -3 184 -6 3
-3 0 -5 -6 -5 -18 0 -15 -57 3 -64 18 -6 19 7 4 36 -7 12 -7 18 -1 14 6 -3 13
11 17 33 7 43 70 112 123 133 33 13 132 16 132 4 0 -5 3 -6 7 -3 3 4 12 2 20
-5 10 -8 17 -8 25 0 7 7 20 12 29 12 21 0 33 16 24 31 -5 7 -16 2 -31 -12 -21
-20 -27 -21 -49 -9 l-25 13 0 175 0 174 43 -7 c23 -4 70 -18 104 -32 35 -13
68 -21 74 -17 8 4 9 3 5 -4 -4 -6 5 -17 22 -26 16 -8 34 -21 41 -30 7 -8 19
-12 27 -9 8 3 14 0 14 -6 0 -6 -7 -11 -15 -11 -8 0 -15 -5 -15 -10 0 -6 -11
-16 -25 -22 -15 -7 -24 -17 -21 -25 3 -8 2 -12 -2 -9 -13 8 -52 -23 -52 -40 0
-8 -4 -13 -8 -10 -11 7 -87 -73 -78 -82 4 -4 30 16 57 45 27 28 49 49 49 46 0
-3 23 17 51 45 l51 51 29 -21 c16 -12 29 -26 29 -30 0 -13 -139 -145 -147
-139 -3 3 -3 0 1 -6 4 -8 2 -13 -6 -13 -7 0 -32 -20 -55 -44 l-42 -44 -16 24
c-9 14 -21 22 -27 18 -6 -4 -8 -3 -4 4 8 13 -10 26 -24 17 -6 -4 6 -26 29 -52
29 -32 42 -57 47 -89 4 -29 11 -44 21 -44 11 0 13 7 9 25 -6 24 -5 25 46 26
29 1 102 1 163 -1 100 -2 108 -1 96 14 -11 13 -38 16 -173 16 -104 0 -157 3
-153 10 3 6 0 10 -7 10 -7 0 4 12 25 27 20 14 37 32 37 39 0 7 5 16 12 20 7 5
8 2 3 -7 -4 -8 8 1 28 20 20 19 33 39 30 44 -3 6 -1 7 4 4 12 -8 83 53 83 71
0 7 4 12 9 12 5 0 15 2 23 5 9 4 24 -14 43 -50 17 -30 33 -55 38 -55 13 0 7
41 -7 46 -9 3 -12 12 -9 21 4 10 2 14 -4 10 -5 -3 -17 11 -26 31 -30 68 -208
214 -239 196 -7 -4 -10 -3 -5 1 11 13 -84 46 -111 40 -15 -4 -21 -2 -17 5 4 6
-5 10 -22 11 -15 1 -55 2 -88 4 -33 2 -91 -3 -128 -11z m156 -13 c4 -1 7 -77
7 -170 l0 -169 -40 -4 -40 -4 0 172 c0 181 1 186 45 179 11 -2 23 -4 28 -4z
m-93 -176 l0 -176 -30 -13 c-17 -7 -28 -15 -25 -19 3 -4 2 -4 -3 -1 -4 3 -7 9
-7 12 0 4 -32 35 -70 70 -39 35 -82 75 -97 90 -15 14 -31 23 -35 18 -8 -8 81
-96 97 -96 6 0 9 -3 8 -7 -2 -5 17 -26 41 -49 l44 -41 -23 -21 c-12 -11 -19
-25 -15 -31 12 -21 -13 -11 -46 18 -18 16 -38 27 -43 24 -5 -3 -6 -2 -3 4 3 5
-34 47 -84 92 -49 46 -89 91 -89 100 0 14 -2 14 -10 1 -5 -8 -10 -10 -10 -4 0
6 8 18 17 25 11 10 14 10 9 2 -4 -7 -3 -13 3 -13 6 0 15 9 22 21 11 21 11 21
39 -6 18 -18 30 -23 35 -15 9 15 -15 42 -31 36 -10 -4 -13 2 -10 17 1 12 8 22
14 22 6 0 21 8 32 18 11 9 24 17 30 17 5 0 15 9 23 21 10 13 16 16 19 8 3 -8
9 -7 21 5 9 9 19 16 22 15 3 -1 16 2 28 6 12 4 36 9 52 12 17 3 32 7 34 9 2 2
13 4 23 4 17 0 18 -12 18 -175z"/>
<path d="M4696 4084 c-10 -26 -7 -104 4 -104 6 0 7 -7 1 -17 -7 -14 -31 -127
-45 -209 -1 -7 -6 -18 -12 -25 -5 -8 -20 -34 -33 -59 -14 -25 -37 -61 -53 -81
-15 -20 -28 -41 -28 -45 0 -5 -16 -20 -35 -33 -19 -13 -35 -30 -35 -39 0 -8
-3 -12 -7 -9 -3 4 -16 -1 -27 -12 -12 -10 -45 -32 -74 -49 -29 -16 -53 -33
-52 -37 1 -3 -1 -9 -4 -13 -3 -3 -6 0 -6 7 0 10 -5 10 -22 -1 -13 -8 -51 -21
-86 -28 -58 -12 -81 -24 -69 -36 5 -6 80 11 112 26 11 4 31 11 45 14 25 5 126
64 174 101 14 11 26 29 26 40 0 14 3 16 9 7 6 -10 21 2 57 43 27 31 48 60 46
66 -1 5 2 9 7 9 5 0 18 16 30 36 12 19 17 32 11 29 -5 -3 -10 -1 -10 4 0 6 6
11 14 11 7 0 18 12 24 28 20 53 24 67 28 87 2 11 11 45 19 75 10 36 15 85 13
142 -3 85 -9 105 -22 72z"/>
<path d="M4572 4007 c3 -28 0 -32 -24 -35 -35 -4 -37 -22 -2 -22 26 0 26 -1
18 -47 -4 -27 -7 -58 -7 -70 1 -13 -3 -20 -8 -17 -8 4 -10 -6 -9 -31 1 -3 -6
-12 -14 -21 -8 -8 -12 -22 -9 -31 5 -12 3 -14 -7 -8 -9 5 -11 4 -6 -3 4 -7 2
-12 -3 -12 -6 0 -11 -8 -11 -18 0 -26 -35 -25 -62 2 -13 13 -34 26 -48 29 -21
5 -18 0 19 -33 25 -21 48 -37 51 -35 4 2 7 -2 7 -10 0 -8 -4 -12 -8 -10 -9 6
-31 -20 -23 -27 3 -3 -7 -9 -22 -12 -23 -6 -32 -1 -62 33 -19 23 -42 41 -50
41 -9 0 -13 3 -9 6 6 7 -98 107 -117 112 -6 2 -4 -1 4 -7 12 -8 12 -11 1 -11
-11 0 -11 -3 -1 -15 7 -8 22 -15 33 -15 11 0 17 -3 14 -7 -4 -3 29 -42 74 -85
l82 -79 -31 -28 c-16 -16 -37 -31 -46 -34 -9 -4 -16 -11 -16 -16 0 -6 -6 -8
-14 -5 -7 3 -20 -2 -29 -10 -8 -8 -17 -12 -21 -9 -3 4 -6 1 -6 -6 0 -7 -3 -10
-8 -7 -4 2 -32 -2 -62 -10 -30 -8 -83 -14 -117 -14 l-63 0 -1 128 c-1 70 -1
135 0 144 2 11 -3 16 -11 13 -10 -4 -12 -37 -10 -145 2 -110 0 -140 -10 -140
-14 0 -104 24 -129 34 -10 5 -16 2 -16 -7 0 -17 107 -53 131 -44 8 3 18 2 21
-3 4 -6 20 -10 36 -10 22 0 28 4 23 13 -6 9 -3 8 8 -1 19 -15 79 -10 161 14
54 15 166 69 182 87 6 7 19 17 30 24 11 6 19 16 17 23 -1 6 2 9 7 6 11 -7 71
60 71 80 0 8 4 13 8 10 8 -5 49 50 54 74 2 8 6 17 9 20 17 15 38 96 40 156 1
38 7 75 12 82 8 10 7 16 -2 22 -11 6 -11 8 0 12 9 3 8 6 -5 11 -15 6 -17 2
-14 -26z"/>
</g>
</svg>
